<svg width="25" height="25" viewBox="0 0 25 25" fill="none" xmlns="http://www.w3.org/2000/svg">
<path d="M8.34063 2.48438C6.85242 2.89425 5.37438 3.34021 3.90782 3.82188C3.7738 3.86509 3.65466 3.94517 3.56403 4.05294C3.47339 4.1607 3.41493 4.29181 3.39532 4.43125C2.5297 10.9266 4.5297 15.6656 6.91563 18.7875C7.92537 20.1229 9.12995 21.299 10.4891 22.2766C11.0297 22.6578 11.5078 22.9328 11.8844 23.1094C12.0719 23.1979 12.2245 23.2594 12.3422 23.2938C12.3941 23.3095 12.4468 23.3225 12.5 23.3328C12.5527 23.3225 12.6049 23.3094 12.6563 23.2938C12.775 23.2583 12.9281 23.1969 13.1156 23.1094C13.4906 22.9328 13.9703 22.6562 14.5109 22.2766C15.8701 21.299 17.0746 20.1229 18.0844 18.7875C20.4703 15.6672 22.4703 10.9266 21.6047 4.43125C21.5851 4.29181 21.5266 4.1607 21.436 4.05294C21.3454 3.94517 21.2262 3.86509 21.0922 3.82188C20.075 3.48906 18.3578 2.94687 16.6594 2.48594C14.925 2.01562 13.3297 1.66719 12.5 1.66719C11.6719 1.66719 10.075 2.01406 8.34063 2.48438ZM7.92501 0.875C9.62032 0.414063 11.4219 0 12.5 0C13.5781 0 15.3797 0.414063 17.075 0.875C18.8094 1.34375 20.5578 1.89844 21.5859 2.23438C22.0158 2.37633 22.3969 2.63666 22.6855 2.98547C22.974 3.33428 23.1583 3.75741 23.2172 4.20625C24.1484 11.2016 21.9875 16.3859 19.3656 19.8156C18.2534 21.2824 16.9277 22.5743 15.4328 23.6484C14.9165 24.021 14.3685 24.3478 13.7953 24.625C13.3578 24.8313 12.8875 25 12.5 25C12.1125 25 11.6438 24.8313 11.2047 24.625C10.6315 24.3478 10.0836 24.021 9.5672 23.6484C8.07228 22.5743 6.74664 21.2824 5.63438 19.8156C3.01251 16.3859 0.851571 11.2016 1.78282 4.20625C1.84171 3.75741 2.02601 3.33428 2.31457 2.98547C2.60312 2.63666 2.98421 2.37633 3.41407 2.23438C4.90666 1.74533 6.41073 1.29207 7.92501 0.875Z" fill="#203240"/>
<path d="M16.9594 8.04062C17.0321 8.11319 17.0899 8.1994 17.1292 8.29431C17.1686 8.38923 17.1889 8.49098 17.1889 8.59374C17.1889 8.6965 17.1686 8.79826 17.1292 8.89317C17.0899 8.98808 17.0321 9.0743 16.9594 9.14687L12.2719 13.8344C12.1993 13.9071 12.1131 13.9648 12.0182 14.0042C11.9233 14.0436 11.8215 14.0639 11.7188 14.0639C11.616 14.0639 11.5142 14.0436 11.4193 14.0042C11.3244 13.9648 11.2382 13.9071 11.1656 13.8344L8.82189 11.4906C8.74925 11.418 8.69163 11.3317 8.65232 11.2368C8.61301 11.1419 8.59277 11.0402 8.59277 10.9375C8.59277 10.8348 8.61301 10.733 8.65232 10.6381C8.69163 10.5432 8.74925 10.457 8.82189 10.3844C8.89452 10.3117 8.98076 10.2541 9.07566 10.2148C9.17057 10.1755 9.27229 10.1553 9.37501 10.1553C9.47774 10.1553 9.57945 10.1755 9.67436 10.2148C9.76927 10.2541 9.8555 10.3117 9.92814 10.3844L11.7188 12.1766L15.8531 8.04062C15.9257 7.96786 16.0119 7.91014 16.1068 7.87075C16.2017 7.83137 16.3035 7.8111 16.4063 7.8111C16.509 7.8111 16.6108 7.83137 16.7057 7.87075C16.8006 7.91014 16.8868 7.96786 16.9594 8.04062Z" fill="#203240"/>
</svg>
